<?xml version="1.0" encoding="UTF-8"?>
<svg version="1.1" xmlns="http://www.w3.org/2000/svg" width="225" height="225">
<path d="M0 0 C2.61862977 2.08211577 4.93423745 4.41815008 7.2746582 6.8046875 C8.32694862 7.85369232 8.32694862 7.85369232 9.40049744 8.92388916 C11.71033755 11.23142294 14.00559236 13.55290031 16.30078125 15.875 C17.90326555 17.48240846 19.50656401 19.08900563 21.11064148 20.69482422 C24.46631973 24.05813708 27.81543413 27.42780038 31.15942383 30.80273438 C35.45296303 35.13592757 39.75727583 39.45820856 44.06583881 43.77645874 C48.16853435 47.88910998 52.26624186 52.00671519 56.36328125 56.125 C57.14877161 56.91388611 57.93426197 57.70277222 58.74355507 58.51556396 C60.95589271 60.73943728 63.16469693 62.96675471 65.37231445 65.1953125 C66.03254608 65.85823303 66.69277771 66.52115356 67.37301636 67.2041626 C67.97153915 67.8098407 68.57006195 68.4155188 69.1867218 69.03955078 C69.70895986 69.56606232 70.23119791 70.09257385 70.76926136 70.63504028 C72.66953763 72.74255562 72.99853787 73.98552117 73.28744507 76.84643555 C72.93766493 80.68387903 72.05677618 81.723045 69.40087891 84.45703125 C68.57356262 85.32150879 67.74624634 86.18598633 66.89385986 87.07666016 C65.92965665 88.05151914 64.96501258 89.02594221 64 90 C62.93173152 91.09982995 61.86445377 92.20062285 60.79803467 93.30224609 C57.08557737 97.12211401 53.33853381 100.90710879 49.5859375 104.6875 C48.90787678 105.3708844 48.22981606 106.0542688 47.53120804 106.75836182 C43.95366201 110.3624163 40.37259979 113.96293841 36.7890625 117.56103516 C33.83573256 120.52778152 30.88987663 123.50166352 27.95019531 126.48193359 C24.37826726 130.10314349 20.7942524 133.71195675 17.20116043 137.31216431 C15.84058134 138.67944631 14.48425252 140.05097188 13.13236618 141.42684937 C11.24484302 143.34599499 9.34214814 145.24876138 7.43505859 147.1484375 C6.8852684 147.71463303 6.33547821 148.28082855 5.76902771 148.86418152 C2.13454373 152.44126483 -0.84511772 154.05598905 -6 155 C-10.36578721 154.02298968 -12.78050013 151.57213535 -15.86328125 148.4296875 C-16.74951172 147.53378906 -17.63574219 146.63789063 -18.54882812 145.71484375 C-19.46083984 144.77769531 -20.37285156 143.84054688 -21.3125 142.875 C-22.25255572 141.91988395 -23.19330431 140.96544933 -24.13476562 140.01171875 C-26.43008067 137.68109117 -28.71809646 135.34374804 -31 133 C-25.75179943 126.63491433 -19.97528548 120.84677025 -14.1328125 115.03515625 C-13.08741675 113.99162921 -12.04224425 112.94787848 -10.99728394 111.90391541 C-8.2672716 109.17769255 -5.53426807 106.45448819 -2.80059814 103.73193359 C-0.00324846 100.94487541 2.79121701 98.15492854 5.5859375 95.36523438 C11.05449694 89.90734919 16.52622445 84.45265441 22 79 C21.34 78.34 20.68 77.68 20 77 C19.60961516 77.39591559 19.21923033 77.79183119 18.81701565 78.19974422 C9.31001273 87.83934584 -0.21382049 97.46203653 -9.75597477 107.0668478 C-14.37002954 111.71222147 -18.97833476 116.3630134 -23.57397461 121.02661133 C-28.00880217 125.52660594 -32.45810485 130.01180667 -36.91784477 134.48710823 C-38.61716404 136.19751815 -40.31119124 137.9132026 -41.99980354 139.63418388 C-44.36508294 142.04298563 -46.74844782 144.43238286 -49.13696289 146.81811523 C-49.83180283 147.53452682 -50.52664276 148.25093842 -51.24253845 148.98905945 C-54.38316793 152.09029216 -56.39845568 153.81419223 -60.67893982 155.1363678 C-67.50494377 154.85608166 -71.38756512 149.92305339 -75.97753906 145.3605957 C-76.65941284 144.69025803 -77.34128662 144.01992035 -78.04382324 143.32926941 C-80.29015376 141.11715804 -82.52859005 138.89729044 -84.765625 136.67578125 C-85.91529377 135.53646684 -85.91529377 135.53646684 -87.08818817 134.37413597 C-91.14100557 130.35710843 -95.18767653 126.334004 -99.22949219 122.3059082 C-103.403057 118.14891969 -107.59715298 114.01330685 -111.7963295 109.88221455 C-115.02505987 106.69825245 -118.23809509 103.49879841 -121.44707489 100.29494286 C-122.98661364 98.76329819 -124.5320252 97.23753295 -126.08338165 95.71785927 C-128.25244975 93.5902093 -130.39833414 91.44152106 -132.54003906 89.28637695 C-133.18314026 88.6653006 -133.82624146 88.04422424 -134.48883057 87.40432739 C-137.86048868 83.96032047 -140.19380803 80.97528046 -140.44266224 76.02876568 C-139.50068027 71.71156731 -136.08165455 68.961833 -133 66 C-131.88662575 64.83419102 -130.77601506 63.66573518 -129.66847229 62.49438477 C-128.50858854 61.30779413 -127.34629131 60.12355897 -126.18188477 58.94140625 C-125.21939316 57.95942009 -125.21939316 57.95942009 -124.23745728 56.95759583 C-117.6106676 50.20533575 -110.94970734 43.48668116 -104.28588867 36.77099609 C-101.12809412 33.58632008 -97.98170609 30.39097512 -94.84448242 27.18603516 C-91.04148439 23.3012043 -87.21931112 19.43625859 -83.38264275 15.58468628 C-81.92810157 14.11789815 -80.4804637 12.64423025 -79.04001045 11.16360474 C-77.02748128 9.09772441 -74.99125802 7.05837277 -72.94750977 5.0234375 C-72.36076981 4.40950638 -71.77402985 3.79557526 -71.16950989 3.16304016 C-68.09260618 0.15394073 -66.09124781 -1.36532306 -61.69322205 -1.44140625 C-56.86425853 -0.86425853 -56.86425853 -0.86425853 -54.375 1.625 C-53.41207031 2.55892578 -53.41207031 2.55892578 -52.4296875 3.51171875 C-51.62789063 4.33285156 -50.82609375 5.15398438 -50 6 C-48.79584498 7.19559792 -47.58996702 8.38946189 -46.3828125 9.58203125 C-42.89991297 13.03329203 -39.4452632 16.51118712 -36 20 C-38.16513913 23.94740298 -40.65171668 26.89515258 -43.83862305 30.06567383 C-44.31698608 30.54432892 -44.79534912 31.02298401 -45.28820801 31.5161438 C-46.85801402 33.08456532 -48.43476631 34.64579804 -50.01171875 36.20703125 C-51.10645988 37.29803912 -52.20075797 38.38949172 -53.29463196 39.48136902 C-56.16552705 42.34465234 -59.04237874 45.20187667 -61.92053223 48.05786133 C-64.86016322 50.9769809 -67.79409365 53.90181768 -70.72851562 56.82617188 C-76.48012774 62.55637742 -82.23804816 68.28019165 -88 74 C-87.67 74.33 -87.34 74.66 -87 75 C-81.7667146 70.52110846 -76.76526504 65.89823883 -71.92895508 60.99487305 C-70.94438576 60.00329445 -70.94438576 60.00329445 -69.93992615 58.99168396 C-68.53008879 57.57142934 -67.12136299 56.15007059 -65.7136631 54.72769737 C-63.48427016 52.47610657 -61.25078155 50.22865475 -59.01603699 47.9823761 C-52.66792211 41.60081708 -46.32412778 35.21501031 -39.99047852 28.8190918 C-36.10383316 24.89482083 -32.20992745 20.97788174 -28.3112545 17.06556129 C-26.83051288 15.57676954 -25.35255249 14.08520619 -23.87745094 12.59082603 C-21.81942133 10.50634455 -19.75229739 8.43130324 -17.68286133 6.3581543 C-17.07755585 5.74049194 -16.47225037 5.12282959 -15.84860229 4.4864502 C-10.73963267 -0.59840191 -7.12712059 -3.5164038 0 0 Z M-8 49 C-14.65542865 55.60916668 -21.30550046 62.22366259 -27.94872284 68.8450985 C-31.03333084 71.91925213 -34.11977877 74.9915108 -37.21044922 78.05957031 C-40.19089697 81.01834852 -43.16648728 83.98193111 -46.13871765 86.94896317 C-47.27572091 88.08226006 -48.41448807 89.21379002 -49.55500793 90.34354782 C-51.14744401 91.92154723 -52.73359317 93.50561194 -54.31835938 95.09130859 C-55.2243689 95.99287689 -56.13037842 96.89444519 -57.06384277 97.82333374 C-59.22154043 99.76353119 -59.22154043 99.76353119 -59 102 C-60.485 102.495 -60.485 102.495 -62 103 C-58.00759352 103.41642709 -58.00759352 103.41642709 -55.59628296 101.07730103 C-54.25964096 99.72733536 -54.25964096 99.72733536 -52.89599609 98.35009766 C-52.40119247 97.85587814 -51.90638885 97.36165863 -51.39659119 96.85246277 C-49.76254773 95.21563173 -48.14313198 93.56508349 -46.5234375 91.9140625 C-45.39138825 90.77455105 -44.2584512 89.63592097 -43.12466431 88.49813843 C-40.1409402 85.49913806 -37.16941592 82.48832598 -34.20025635 79.47491455 C-31.17718486 76.41100304 -28.14283708 73.35830586 -25.109375 70.3046875 C-19.78051644 64.93751787 -14.4616516 59.56061632 -9.14974976 54.17666626 C-7.77066694 52.78031628 -6.38774325 51.38774325 -5 50 C-5.99 49.67 -6.98 49.34 -8 49 Z " fill="#C02721" transform="translate(146,31)"/>
<path d="M0 0 C0.99 0.495 0.99 0.495 2 1 C-7.73817423 10.78484384 -17.48209815 20.56392938 -27.23273277 30.33635712 C-31.75970017 34.87378172 -36.28478026 39.41305627 -40.80566406 43.95654297 C-45.16495916 48.33749745 -49.52905807 52.71361208 -53.896595 57.08634949 C-55.56577828 58.75924097 -57.2331943 60.43389765 -58.89884567 62.11030579 C-61.22403393 64.4499171 -63.55530903 66.78329082 -65.88818359 69.11523438 C-66.58229843 69.81653976 -67.27641327 70.51784515 -67.99156189 71.24040222 C-68.62537277 71.87146378 -69.25918365 72.50252533 -69.91220093 73.15270996 C-70.73904923 73.98232365 -70.73904923 73.98232365 -71.58260155 74.8286972 C-73 76 -73 76 -75 76 C-75 75.34 -75 74.68 -75 74 C-73.66088867 72.68212891 -73.66088867 72.68212891 -71.73046875 71.1015625 C-65.94192883 66.1785629 -60.65822229 60.76587341 -55.3125 55.375 C-54.28344047 54.34090959 -53.25414493 53.30705398 -52.22460938 52.2734375 C-50.33227605 50.37302143 -48.4415879 48.471024 -46.55200195 46.56787109 C-42.44984131 42.44020194 -38.32894653 38.33227737 -34.19012451 34.24142456 C-31.69472007 31.77285104 -29.20468362 29.29889147 -26.71484375 26.82470703 C-25.39954799 25.51954401 -24.08247391 24.21617079 -22.76367188 22.91455078 C-20.85337108 21.02843702 -18.94954001 19.13599983 -17.046875 17.2421875 C-16.45525574 16.66089081 -15.86363647 16.07959412 -15.25408936 15.48068237 C-11.95338374 12.18490352 -11.95338374 12.18490352 -10 8 C-9.34 8 -8.68 8 -8 8 C-7.67 7.34 -7.34 6.68 -7 6 C-5.84077687 4.92695413 -4.64919636 3.88841878 -3.4375 2.875 C-2.79683594 2.33617188 -2.15617187 1.79734375 -1.49609375 1.2421875 C-1.00238281 0.83226563 -0.50867188 0.42234375 0 0 Z " fill="#AB1E19" transform="translate(163,108)"/>
<path d="M0 0 C2 2 2 2 2.3984375 4.79296875 C1.88786121 8.90260731 0.4701361 10.35517399 -2.375 13.3125 C-3.18710938 14.17488281 -3.99921875 15.03726563 -4.8359375 15.92578125 C-7 18 -7 18 -9 19 C-7.79618552 16.50638429 -6.54571278 14.31856917 -5 12 C-5.99 11.67 -6.98 11.34 -8 11 C-7.67 8.36 -7.34 5.72 -7 3 C-6.34 3 -5.68 3 -5 3 C-5 2.34 -5 1.68 -5 1 C-2.625 0.375 -2.625 0.375 0 0 Z " fill="#C2312C" transform="translate(217,103)"/>
<path d="M0 0 C3.90285767 1.58667578 6.33520982 4.13350481 9.25 7.125 C10.14203125 8.03507812 11.0340625 8.94515625 11.953125 9.8828125 C12.62859375 10.58148438 13.3040625 11.28015625 14 12 C13.34 12.66 12.68 13.32 12 14 C10.02 12.35 8.04 10.7 6 9 C5.67 9.66 5.34 10.32 5 11 C4.67 10.67 4.34 10.34 4 10 C2.31816052 9.76712992 0.6287584 9.58735834 -1.0625 9.4375 C-1.98160156 9.35371094 -2.90070313 9.26992187 -3.84765625 9.18359375 C-4.55792969 9.12300781 -5.26820313 9.06242187 -6 9 C-6 8.34 -6 7.68 -6 7 C-4.68 7 -3.36 7 -2 7 C-2 5.68 -2 4.36 -2 3 C-1.34 3 -0.68 3 0 3 C0 2.01 0 1.02 0 0 Z " fill="#B9281E" transform="translate(142,85)"/>
<path d="M0 0 C0.99 0.33 1.98 0.66 3 1 C2.34 1 1.68 1 1 1 C1 1.66 1 2.32 1 3 C0.34 3 -0.32 3 -1 3 C-1 3.66 -1 4.32 -1 5 C-1.66 5 -2.32 5 -3 5 C-3 5.66 -3 6.32 -3 7 C-2.34 7 -1.68 7 -1 7 C-1 8.32 -1 9.64 -1 11 C-0.34 11 0.32 11 1 11 C1 11.66 1 12.32 1 13 C1.99 13.33 2.98 13.66 4 14 C3.67 15.65 3.34 17.3 3 19 C-5.36628849 11.94975689 -5.36628849 11.94975689 -8 9 C-8 7 -8 7 -6.35546875 5.23828125 C-5.64003906 4.60277344 -4.92460938 3.96726562 -4.1875 3.3125 C-3.47980469 2.66925781 -2.77210937 2.02601562 -2.04296875 1.36328125 C-1.36878906 0.91339844 -0.69460937 0.46351562 0 0 Z " fill="#B42922" transform="translate(67,99)"/>
<path d="M0 0 C-0.99897713 2.99693138 -1.65130253 4.02709413 -4 6 C-4.66 6 -5.32 6 -6 6 C-6.2475 6.61875 -6.495 7.2375 -6.75 7.875 C-8.20628639 10.35068687 -9.37812506 10.95125002 -12 12 C-12 12.66 -12 13.32 -12 14 C-12.66 14 -13.32 14 -14 14 C-14 14.99 -14 15.98 -14 17 C-14.99 17 -15.98 17 -17 17 C-17.268125 17.639375 -17.53625 18.27875 -17.8125 18.9375 C-19 21 -19 21 -22 22 C-22 22.66 -22 23.32 -22 24 C-22.66 24 -23.32 24 -24 24 C-24 24.66 -24 25.32 -24 26 C-24.66 26 -25.32 26 -26 26 C-24.41636918 22.16394511 -21.97385878 19.71554351 -19.0625 16.796875 C-18.58176025 16.3142218 -18.10102051 15.8315686 -17.60571289 15.33428955 C-16.59278907 14.32000936 -15.57735362 13.30823196 -14.55957031 12.29882812 C-12.99826835 10.74828028 -11.44797503 9.18729497 -9.8984375 7.625 C-8.91209939 6.63998266 -7.9251415 5.65558547 -6.9375 4.671875 C-5.58978516 3.32754395 -5.58978516 3.32754395 -4.21484375 1.95605469 C-2 0 -2 0 0 0 Z " fill="#AC251F" transform="translate(110,58)"/>
<path d="M0 0 C3.73665662 0.55023295 5.18446617 1.94502744 7.5625 4.8125 C8.43068359 5.84310547 8.43068359 5.84310547 9.31640625 6.89453125 C10.9203625 8.90040693 12.47324382 10.93493465 14 13 C12.35 13.33 10.7 13.66 9 14 C9 13.34 9 12.68 9 12 C8.34 12 7.68 12 7 12 C7 11.34 7 10.68 7 10 C6.34 10 5.68 10 5 10 C3 7 3 7 3 4 C1.68 4 0.36 4 -1 4 C-0.67 2.68 -0.34 1.36 0 0 Z " fill="#C9484C" transform="translate(57,108)"/>
<path d="M0 0 C0.33 0.66 0.66 1.32 1 2 C1.66 2 2.32 2 3 2 C3 2.66 3 3.32 3 4 C4.32 4.66 5.64 5.32 7 6 C7 6.66 7 7.32 7 8 C7.66 8 8.32 8 9 8 C9 8.66 9 9.32 9 10 C9.66 10 10.32 10 11 10 C11 10.66 11 11.32 11 12 C12.32 12.66 13.64 13.32 15 14 C15 14.66 15 15.32 15 16 C15.66 16 16.32 16 17 16 C17 16.66 17 17.32 17 18 C17.66 18 18.32 18 19 18 C19 18.66 19 19.32 19 20 C20.32 20.66 21.64 21.32 23 22 C23 22.66 23 23.32 23 24 C17.36241907 21.58630037 13.50987594 16.83810665 9.25 12.5625 C7.91775391 11.25442383 7.91775391 11.25442383 6.55859375 9.91992188 C5.71941406 9.08138672 4.88023438 8.24285156 4.015625 7.37890625 C3.24508789 6.6113501 2.47455078 5.84379395 1.68066406 5.05297852 C0 3 0 3 0 0 Z " fill="#AA2C27" transform="translate(33,136)"/>
<path d="M0 0 C0.33 0.99 0.66 1.98 1 3 C0.34 3 -0.32 3 -1 3 C-1 3.66 -1 4.32 -1 5 C-1.66 5 -2.32 5 -3 5 C-3 5.66 -3 6.32 -3 7 C-4.875 9.125 -4.875 9.125 -7 11 C-7.66 11 -8.32 11 -9 11 C-9.268125 11.804375 -9.53625 12.60875 -9.8125 13.4375 C-10.204375 14.283125 -10.59625 15.12875 -11 16 C-11.99 16.33 -12.98 16.66 -14 17 C-14.33 17.66 -14.66 18.32 -15 19 C-15.66 19 -16.32 19 -17 19 C-17 19.66 -17 20.32 -17 21 C-17.66 21 -18.32 21 -19 21 C-19 21.66 -19 22.32 -19 23 C-19.99 23.33 -20.98 23.66 -22 24 C-20.4608199 20.33247995 -18.24514548 18.01419427 -15.4296875 15.234375 C-14.08583984 13.90019531 -14.08583984 13.90019531 -12.71484375 12.5390625 C-11.77769531 11.61867188 -10.84054688 10.69828125 -9.875 9.75 C-8.92011363 8.80515144 -7.96568141 7.85984367 -7.01171875 6.9140625 C-4.67890913 4.60481662 -2.34155914 2.30036797 0 0 Z " fill="#AE1D19" transform="translate(134,32)"/>
<path d="M0 0 C1.65 0.33 3.3 0.66 5 1 C2.74681303 4.4248442 1.36996621 5.85465613 -2.5 7.375 C-5.59009801 7.92680322 -7.14730759 8.14107696 -10 7 C-10 6.01 -10 5.02 -10 4 C-8.02 4 -6.04 4 -4 4 C-4 3.34 -4 2.68 -4 2 C-2.68 2 -1.36 2 0 2 C0 1.34 0 0.68 0 0 Z " fill="#BE332C" transform="translate(146,178)"/>
<path d="M0 0 C0.99 0.33 1.98 0.66 3 1 C-3.27 7.27 -9.54 13.54 -16 20 C-16.66 19.34 -17.32 18.68 -18 18 C-12.06 12.06 -6.12 6.12 0 0 Z " fill="#CA6866" transform="translate(101,58)"/>
<path d="M0 0 C6.75 -0.125 6.75 -0.125 9 1 C9.66 1.99 10.32 2.98 11 4 C11.66 4 12.32 4 13 4 C13 4.66 13 5.32 13 6 C11.02 6 9.04 6 7 6 C6.67 6.66 6.34 7.32 6 8 C4.99403703 7.0479279 3.99538437 6.08812654 3 5.125 C2.443125 4.59132812 1.88625 4.05765625 1.3125 3.5078125 C0 2 0 2 0 0 Z " fill="#B7241D" transform="translate(129,176)"/>
<path d="M0 0 C1.453125 1.54296875 1.453125 1.54296875 2.453125 3.54296875 C1.133125 3.54296875 -0.186875 3.54296875 -1.546875 3.54296875 C-1.876875 2.55296875 -2.206875 1.56296875 -2.546875 0.54296875 C-6.03358334 1.65237595 -9.32171737 2.80634541 -12.546875 4.54296875 C-12.546875 3.88296875 -12.546875 3.22296875 -12.546875 2.54296875 C-11.886875 2.54296875 -11.226875 2.54296875 -10.546875 2.54296875 C-10.546875 1.88296875 -10.546875 1.22296875 -10.546875 0.54296875 C-9.886875 0.54296875 -9.226875 0.54296875 -8.546875 0.54296875 C-8.546875 -0.11703125 -8.546875 -0.77703125 -8.546875 -1.45703125 C-9.206875 -1.45703125 -9.866875 -1.45703125 -10.546875 -1.45703125 C-10.546875 -2.11703125 -10.546875 -2.77703125 -10.546875 -3.45703125 C-5.59057263 -5.55970498 -3.5720844 -3.26923377 0 0 Z " fill="#B6221B" transform="translate(150.546875,35.45703125)"/>
<path d="M0 0 C0 0.66 0 1.32 0 2 C-1.65 2 -3.3 2 -5 2 C-5 2.66 -5 3.32 -5 4 C-4.34 4 -3.68 4 -3 4 C-3 4.66 -3 5.32 -3 6 C-5.97 6 -8.94 6 -12 6 C-11.34 5.67 -10.68 5.34 -10 5 C-10 3.68 -10 2.36 -10 1 C-6.21812119 -0.83691257 -4.05431692 -1.15837626 0 0 Z " fill="#BF2B27" transform="translate(145,30)"/>
<path d="M0 0 C0.33 0.66 0.66 1.32 1 2 C1.66 2 2.32 2 3 2 C3 2.66 3 3.32 3 4 C3.66 4 4.32 4 5 4 C5 4.66 5 5.32 5 6 C5.66 6 6.32 6 7 6 C7 6.66 7 7.32 7 8 C8.32 8.66 9.64 9.32 11 10 C11 10.66 11 11.32 11 12 C12.32 12.66 13.64 13.32 15 14 C15 14.66 15 15.32 15 16 C10.99060757 14.38669686 8.24326219 11.57540302 5.25 8.5625 C4.74339844 8.07201172 4.23679687 7.58152344 3.71484375 7.07617188 C2.4140692 5.77715039 1.20011632 4.39254877 0 3 C0 2.01 0 1.02 0 0 Z " fill="#AA2B27" transform="translate(57,160)"/>
<path d="M0 0 C4.32504836 1.65863505 7.09418825 4.871041 10.25 8.125 C11.08144531 8.96998047 11.08144531 8.96998047 11.9296875 9.83203125 C13.29104485 11.21686028 14.64614859 12.60783204 16 14 C15.01 14 14.02 14 13 14 C11.33333333 12.33333333 9.66666667 10.66666667 8 9 C5.82653432 8.13880866 5.82653432 8.13880866 4 8 C3.896875 7.4225 3.79375 6.845 3.6875 6.25 C2.90207202 3.67950842 1.69495803 2.06342716 0 0 Z " fill="#A51915" transform="translate(167,54)"/>
<path d="M0 0 C0.99 0.33 1.98 0.66 3 1 C2.34 1 1.68 1 1 1 C1 1.66 1 2.32 1 3 C0.34 3 -0.32 3 -1 3 C-1.061875 3.61875 -1.12375 4.2375 -1.1875 4.875 C-2 7 -2 7 -4.5625 8.25 C-5.366875 8.4975 -6.17125 8.745 -7 9 C-7 9.66 -7 10.32 -7 11 C-7.66 11 -8.32 11 -9 11 C-9 11.66 -9 12.32 -9 13 C-9.66 13 -10.32 13 -11 13 C-9.46356148 9.31930113 -7.21849055 7.01224796 -4.375 4.25 C-3.55773437 3.45078125 -2.74046875 2.6515625 -1.8984375 1.828125 C-0.95871094 0.92320313 -0.95871094 0.92320313 0 0 Z " fill="#AC2A25" transform="translate(81,85)"/>
<path d="M0 0 C-0.56132934 3.5371438 -1.69557747 4.99261679 -4.4375 7.25 C-5.05496094 7.77078125 -5.67242187 8.2915625 -6.30859375 8.828125 C-8 10 -8 10 -10 10 C-10 10.66 -10 11.32 -10 12 C-10.66 12 -11.32 12 -12 12 C-10.53033642 8.60140297 -8.61962486 6.35036291 -6 3.75 C-5.29875 3.04359375 -4.5975 2.3371875 -3.875 1.609375 C-2 0 -2 0 0 0 Z " fill="#AC201B" transform="translate(141,82)"/>
<path d="M0 0 C3.21524305 1.40844718 5.32183868 3.10344786 7.75 5.625 C8.67039062 6.57246094 8.67039062 6.57246094 9.609375 7.5390625 C10.29773438 8.26222656 10.29773438 8.26222656 11 9 C10.01 10.485 10.01 10.485 9 12 C7.79557292 10.47005208 6.59114583 8.94010417 5.38671875 7.41015625 C3.94316909 5.72844923 3.94316909 5.72844923 1 5 C0.67 3.35 0.34 1.7 0 0 Z " fill="#B41D19" transform="translate(98,41)"/>
<path d="M0 0 C3.90285767 1.58667578 6.33520982 4.13350481 9.25 7.125 C10.14203125 8.03507812 11.0340625 8.94515625 11.953125 9.8828125 C12.62859375 10.58148438 13.3040625 11.28015625 14 12 C13.01 12 12.02 12 11 12 C9.33333333 10.33333333 7.66666667 8.66666667 6 7 C5.278125 6.855625 4.55625 6.71125 3.8125 6.5625 C3.214375 6.376875 2.61625 6.19125 2 6 C0.75 2.9375 0.75 2.9375 0 0 Z " fill="#A71A16" transform="translate(153,40)"/>
<path d="M0 0 C-2.15381444 5.28663545 -6.42236838 8.77870367 -11 12 C-10.44040477 8.17753412 -8.78682643 6.41028259 -6.0625 3.75 C-5.35222656 3.04359375 -4.64195313 2.3371875 -3.91015625 1.609375 C-2 0 -2 0 0 0 Z " fill="#B11D1D" transform="translate(128,95)"/>
<path d="M0 0 C0.86625 0.845625 1.7325 1.69125 2.625 2.5625 C5.29015261 4.82153412 5.66887413 5.01839588 9.375 4.8125 C10.24125 4.544375 11.1075 4.27625 12 4 C12 4.66 12 5.32 12 6 C11.34 6 10.68 6 10 6 C9.67 6.99 9.34 7.98 9 9 C8.01 9.33 7.02 9.66 6 10 C5.566875 9.236875 5.13375 8.47375 4.6875 7.6875 C3.16247642 5.03713747 3.16247642 5.03713747 1.3125 3.3125 C0.879375 2.879375 0.44625 2.44625 0 2 C0 1.34 0 0.68 0 0 Z " fill="#C84846" transform="translate(79,129)"/>
<path d="M0 0 C1.14926266 0.95421808 2.29430541 1.91352045 3.4375 2.875 C4.07558594 3.40867187 4.71367188 3.94234375 5.37109375 4.4921875 C7 6 7 6 8 8 C6.35 8.33 4.7 8.66 3 9 C3 8.01 3 7.02 3 6 C2.34 5.67 1.68 5.34 1 5 C1 5.66 1 6.32 1 7 C0.34 7 -0.32 7 -1 7 C-0.649375 6.401875 -0.29875 5.80375 0.0625 5.1875 C1.33304698 2.89186786 1.33304698 2.89186786 0 0 Z " fill="#CB5758" transform="translate(71,121)"/>
<path d="M0 0 C1.32 0 2.64 0 4 0 C4.33 1.65 4.66 3.3 5 5 C2.625 5.625 2.625 5.625 0 6 C-0.66 5.34 -1.32 4.68 -2 4 C-1.34 4 -0.68 4 0 4 C0 2.68 0 1.36 0 0 Z " fill="#B7382E" transform="translate(82,180)"/>
<path d="M0 0 C0.99 0.33 1.98 0.66 3 1 C2.34 1 1.68 1 1 1 C1 1.66 1 2.32 1 3 C0.34 3 -0.32 3 -1 3 C-1 3.66 -1 4.32 -1 5 C-1.66 5 -2.32 5 -3 5 C-3 5.66 -3 6.32 -3 7 C-3.66 7 -4.32 7 -5 7 C-5.33 8.32 -5.66 9.64 -6 11 C-6.66 9.68 -7.32 8.36 -8 7 C-6.74057614 5.80040625 -5.46704714 4.61560557 -4.1875 3.4375 C-3.12595703 2.44556641 -3.12595703 2.44556641 -2.04296875 1.43359375 C-1.36878906 0.96050781 -0.69460937 0.48742187 0 0 Z " fill="#AF3634" transform="translate(67,99)"/>
<path d="M0 0 C0 0.66 0 1.32 0 2 C0.66 2 1.32 2 2 2 C2 2.66 2 3.32 2 4 C0.35 4 -1.3 4 -3 4 C-3 3.34 -3 2.68 -3 2 C-4.32 1.67 -5.64 1.34 -7 1 C-3.375 -1.125 -3.375 -1.125 0 0 Z " fill="#C12E2C" transform="translate(122,162)"/>
<path d="M0 0 C1.65 0 3.3 0 5 0 C5 0.66 5 1.32 5 2 C4.34 2 3.68 2 3 2 C3.33 3.65 3.66 5.3 4 7 C3.01 6.67 2.02 6.34 1 6 C0.67 4.02 0.34 2.04 0 0 Z " fill="#B42321" transform="translate(7,106)"/>
<path d="M0 0 C1.65 0.33 3.3 0.66 5 1 C3.35 2.98 1.7 4.96 0 7 C-1.04449911 3.86650268 -0.93423645 3.01031744 0 0 Z " fill="#CD605E" transform="translate(72,84)"/>
<path d="M0 0 C0.66 0 1.32 0 2 0 C2 1.32 2 2.64 2 4 C1.34 4 0.68 4 0 4 C0 4.66 0 5.32 0 6 C-1.32 6 -2.64 6 -4 6 C-4 5.34 -4 4.68 -4 4 C-3.34 4 -2.68 4 -2 4 C-2 3.34 -2 2.68 -2 2 C-1.34 2 -0.68 2 0 2 C0 1.34 0 0.68 0 0 Z " fill="#C82327" transform="translate(132,130)"/>
<path d="M0 0 C0.66 0.33 1.32 0.66 2 1 C1.07038578 2.15224028 0.1309875 3.29659176 -0.8125 4.4375 C-1.59560547 5.39462891 -1.59560547 5.39462891 -2.39453125 6.37109375 C-4 8 -4 8 -7 9 C-5.44499019 5.18315774 -2.96404505 2.80804268 0 0 Z " fill="#AD292B" transform="translate(110,111)"/>
<path d="M0 0 C0.66 0 1.32 0 2 0 C0.68775452 3.93673644 -0.91910327 6.22719294 -4 9 C-4 5.28703828 -2.65223411 2.65223411 0 0 Z " fill="#B4231E" transform="translate(114,107)"/>
<path d="M0 0 C1.98 0 3.96 0 6 0 C6.33 0.99 6.66 1.98 7 3 C3.86650268 4.04449911 3.01031744 3.93423645 0 3 C0 2.01 0 1.02 0 0 Z " fill="#C04043" transform="translate(136,182)"/>
<path d="M0 0 C3.36720387 1.39332574 4.9859524 2.9789286 7 6 C6.67 6.66 6.34 7.32 6 8 C4.99403703 7.0479279 3.99538437 6.08812654 3 5.125 C2.443125 4.59132813 1.88625 4.05765625 1.3125 3.5078125 C0 2 0 2 0 0 Z " fill="#AA2C28" transform="translate(75,122)"/>
<path d="M0 0 C0.66 0.33 1.32 0.66 2 1 C-0.64960955 4.63094642 -3.01824456 6.89851796 -7 9 C-5.44499019 5.18315774 -2.96404505 2.80804268 0 0 Z " fill="#AC2828" transform="translate(100,121)"/>
<path d="M0 0 C2.31 1.98 4.62 3.96 7 6 C6.34 6.66 5.68 7.32 5 8 C2.5 5.6875 2.5 5.6875 0 3 C0 2.01 0 1.02 0 0 Z " fill="#B32019" transform="translate(149,91)"/>
<path d="M0 0 C2.31 1.98 4.62 3.96 7 6 C6.34 6.66 5.68 7.32 5 8 C2.5 5.6875 2.5 5.6875 0 3 C0 2.01 0 1.02 0 0 Z " fill="#B21A18" transform="translate(91,33)"/>
<path d="M0 0 C0.66 0 1.32 0 2 0 C2.33 2.31 2.66 4.62 3 7 C1.68 6.67 0.36 6.34 -1 6 C-0.67 4.02 -0.34 2.04 0 0 Z " fill="#B8342E" transform="translate(84,126)"/>
<path d="M0 0 C1.875 0.25 1.875 0.25 4 1 C5.25 3.0625 5.25 3.0625 6 5 C3.69 4.67 1.38 4.34 -1 4 C-0.67 2.68 -0.34 1.36 0 0 Z " fill="#C75256" transform="translate(57,108)"/>
<path d="M0 0 C0 0.66 0 1.32 0 2 C-2.64 2 -5.28 2 -8 2 C-8 1.34 -8 0.68 -8 0 C-4.71023192 -1.09658936 -3.28696233 -0.79953138 0 0 Z " fill="#B13939" transform="translate(145,30)"/>
<path d="M0 0 C0.66 0 1.32 0 2 0 C2 0.66 2 1.32 2 2 C2.66 2 3.32 2 4 2 C4 2.66 4 3.32 4 4 C3.34 4 2.68 4 2 4 C1.67 4.66 1.34 5.32 1 6 C-0.0625 4.125 -0.0625 4.125 -1 2 C-0.67 1.34 -0.34 0.68 0 0 Z " fill="#AE2D26" transform="translate(72,116)"/>
<path d="M0 0 C0 0.99 0 1.98 0 3 C-3.13349732 4.04449911 -3.98968256 3.93423645 -7 3 C-7 2.34 -7 1.68 -7 1 C-5.5459375 1.0309375 -5.5459375 1.0309375 -4.0625 1.0625 C-1.12534105 1.35618499 -1.12534105 1.35618499 0 0 Z " fill="#C1332C" transform="translate(57,103)"/>
</svg>
